<svg width="130" height="22" viewBox="0 0 130 22" fill="none" xmlns="http://www.w3.org/2000/svg">
<g clip-path="url(#clip0_1_30)">
<path d="M66.0272 4.2814L66.2275 2.97784C66.2616 2.77332 66.2019 2.56878 66.0656 2.41113C65.9334 2.25349 65.7375 2.16399 65.5287 2.16399H57.6125C57.2631 2.16399 56.9692 2.41532 56.9137 2.76043L54.7877 16.2026C54.7579 16.4071 54.8133 16.616 54.9496 16.7736C55.0817 16.9313 55.2777 17.025 55.4822 17.025H57.3099C57.6594 17.025 57.9491 16.7736 58.0088 16.4285L58.831 11.2134H63.3601C63.7052 11.2134 63.9991 10.9621 64.0546 10.617L64.2421 9.47941C64.2718 9.27493 64.2165 9.06619 64.0801 8.90856C63.9438 8.74667 63.7478 8.65706 63.539 8.65706H59.2656L59.8238 4.88221H65.3242C65.6821 4.87795 65.9761 4.63077 66.0272 4.2814ZM107.521 8.76793L107.466 8.74651C106.976 8.59738 106.405 8.51664 105.779 8.51664C104.76 8.51664 103.985 8.92973 103.478 9.74784C102.984 10.5531 102.728 11.4607 102.728 12.4406C102.728 13.0584 102.835 13.5781 103.047 13.9828C103.269 14.4004 103.585 14.6178 103.985 14.6178C104.432 14.6178 104.948 14.3279 105.523 13.7612C106.086 13.2074 106.601 12.5429 107.044 11.793L107.521 8.76793ZM110.845 7.2214L109.392 16.4412C109.337 16.7906 109.042 17.0379 108.693 17.0379H107.615C107.423 17.0379 107.24 16.961 107.108 16.8205C106.976 16.6841 106.903 16.4967 106.912 16.305L106.955 15.163L106.827 15.3037C106.822 15.3079 106.409 15.7681 105.932 16.1388C105.221 16.6926 104.432 16.9909 104.347 17.025C103.908 17.1869 103.436 17.2677 102.941 17.2677C101.855 17.2677 101.045 16.88 100.453 16.0876C99.8653 15.2993 99.571 14.2514 99.571 12.9817C99.571 12.3213 99.6389 11.6695 99.7672 11.0474C99.8989 10.4254 100.129 9.79477 100.457 9.1684C100.785 8.54637 101.199 7.99245 101.685 7.52804C102.166 7.06363 102.805 6.68437 103.576 6.39464C104.347 6.10918 105.229 5.96443 106.188 5.96443C107.368 5.96443 108.745 6.11357 110.278 6.41607C110.657 6.49277 110.905 6.8422 110.845 7.2214ZM118.565 6.07094C117.84 6.24137 117.133 6.68447 116.665 7.02958C116.132 7.42156 115.37 8.25243 115.357 8.26095L115.229 8.40159L115.297 6.93576C115.306 6.74403 115.237 6.5523 115.101 6.41171C114.969 6.2711 114.782 6.19452 114.59 6.19452H113.503C113.154 6.19452 112.86 6.44159 112.805 6.79096L111.318 16.2196C111.288 16.4242 111.347 16.6287 111.479 16.7864C111.612 16.944 111.807 17.0335 112.017 17.0335H113.695C114.044 17.0335 114.339 16.7821 114.393 16.437L115.178 11.418C115.625 10.7873 116.204 10.2463 116.908 9.80311C117.432 9.47508 117.968 9.26209 118.505 9.18115C118.8 9.13422 119.033 8.90864 119.089 8.61463L119.413 6.88895C119.459 6.65461 119.383 6.41602 119.208 6.24985C119.046 6.08369 118.8 6.01981 118.565 6.07094ZM84.8802 10.7918C84.8802 10.1697 84.7698 9.64989 84.5564 9.24934C84.3348 8.83178 84.0241 8.6188 83.6235 8.6188C83.1763 8.6188 82.6563 8.90439 82.0856 9.47524C81.519 10.0334 81.0072 10.6936 80.5599 11.4436L80.083 14.4645L80.1429 14.4815C80.6327 14.6349 81.1993 14.7114 81.8297 14.7114C82.8525 14.7114 83.6276 14.2982 84.1304 13.4802C84.6251 12.6792 84.8802 11.7759 84.8802 10.7918ZM87.1515 7.14878C87.7353 7.937 88.0337 8.98525 88.0337 10.2507C88.0337 11.0857 87.9184 11.9036 87.6927 12.679C87.4663 13.4545 87.109 14.2086 86.6274 14.9245C86.1499 15.6317 85.4599 16.2111 84.5736 16.6372C83.6832 17.0675 82.6268 17.2892 81.438 17.2892C80.9695 17.2892 80.3768 17.2424 79.6782 17.1444L79.6058 17.1358L79.478 18.414C79.4737 18.4268 79.4737 18.4394 79.4737 18.4565L79.1031 20.7018C79.0434 21.0427 78.7537 21.29 78.4085 21.29H76.7427C76.5339 21.29 76.3422 21.2004 76.2101 21.0428C76.0738 20.8852 76.0141 20.6805 76.0482 20.4718L78.2211 6.79096C78.2765 6.44585 78.5705 6.19868 78.9199 6.19868H79.9978C80.1895 6.19868 80.3768 6.27537 80.5092 6.41171C80.6409 6.5523 80.7136 6.73976 80.7055 6.92723L80.6621 8.08621L80.7905 7.92435C80.8028 7.91157 81.8297 6.66316 83.4019 6.16893C83.8369 6.03259 84.2539 5.96443 84.6758 5.96443C85.7452 5.96869 86.5595 6.35205 87.1515 7.14878ZM126.021 6.19452H124.708L124.999 4.31989C125.028 4.11538 124.968 3.90658 124.837 3.75319C124.704 3.59555 124.504 3.50604 124.3 3.50604H122.974C122.664 3.50604 122.386 3.71053 122.297 4.01303L121.654 6.19452H120.929C120.58 6.19452 120.291 6.44169 120.235 6.7868L120.069 7.80078C120.039 8.00529 120.091 8.21399 120.231 8.37163C120.363 8.52928 120.559 8.6188 120.768 8.6188H121.207L120.422 13.6377C120.367 13.953 120.337 14.2812 120.337 14.6263C120.337 15.5167 120.571 16.1644 121.058 16.6074C121.534 17.0421 122.263 17.2677 123.23 17.2677C123.81 17.2677 124.627 17.025 124.726 16.9909C124.802 16.961 124.947 16.9143 124.964 16.9058C124.995 16.893 125.024 16.8801 125.049 16.8673C125.254 16.7565 125.386 16.5563 125.412 16.3306L125.535 15.291C125.556 15.0737 125.48 14.852 125.318 14.7029C125.271 14.6603 125.224 14.6221 125.169 14.588C125.13 14.571 125.097 14.5537 125.058 14.541C125.032 14.5325 124.968 14.5197 124.717 14.5239C124.658 14.5239 124.594 14.5283 124.53 14.5283C124.415 14.5283 124.342 14.5239 124.304 14.5154C124.206 14.4984 123.963 14.4473 123.839 14.3365C123.78 14.2854 123.596 14.1235 123.596 13.527C123.596 13.4674 123.601 13.3779 123.618 13.2501L124.338 8.62313H125.825C126.161 8.62313 126.456 8.38453 126.519 8.05645L126.716 7.04227C126.758 6.8335 126.703 6.62062 126.566 6.45872C126.434 6.2883 126.234 6.19452 126.021 6.19452ZM99.3151 6.47995C99.1834 6.301 98.97 6.19452 98.7485 6.19452H96.9931C96.6824 6.19452 96.4052 6.40336 96.3161 6.69734C96.1665 7.20862 95.886 7.79643 95.4723 8.45256C94.8975 9.37713 94.4241 9.94815 94.0235 10.2038L93.9597 10.2336C93.8191 10.306 93.5975 10.4124 92.8224 10.5488L92.7243 10.5658L93.9385 2.97784C93.9687 2.77332 93.9131 2.56452 93.7766 2.41113C93.645 2.25349 93.4487 2.15962 93.2443 2.15962H91.5658C91.2158 2.15962 90.9223 2.41116 90.8667 2.75627L88.7319 16.224C88.6976 16.4285 88.7573 16.6331 88.8897 16.7907C89.0222 16.9484 89.2217 17.0421 89.4269 17.0421H91.1055C91.4546 17.0421 91.7489 16.7907 91.8037 16.4456L92.3539 12.9347H93.4062L94.8542 16.5947C94.9613 16.8674 95.2213 17.0421 95.5107 17.0421H97.334C97.7216 17.0421 98.0412 16.7267 98.0412 16.3347C98.0412 16.241 98.02 16.1431 97.9816 16.0537L96.3243 11.7802L96.3586 11.7504C97.0446 11.1326 97.7477 10.2548 98.4509 9.15139C98.9063 8.43558 99.23 7.74534 99.4222 7.11051C99.49 6.88896 99.4475 6.65889 99.3151 6.47995ZM75.0086 5.26562C75.7073 5.26562 76.2314 5.08667 76.5637 4.72452C76.9003 4.35811 77.0665 3.90658 77.0665 3.33565C77.0665 2.89255 76.9429 2.56029 76.6916 2.33874C76.4444 2.11719 76.061 2.00629 75.5497 2.00629C74.851 2.00629 74.3269 2.18951 73.9988 2.5474C73.658 2.91382 73.4918 3.36971 73.4918 3.94063C73.4918 4.38373 73.6196 4.7161 73.8668 4.93339C74.1224 5.1592 74.4931 5.26562 75.0086 5.26562ZM75.5753 6.19452H73.9136C73.5643 6.19452 73.2745 6.44169 73.2149 6.7868L71.7279 16.2196C71.6981 16.4242 71.7535 16.633 71.8898 16.7864C72.0219 16.944 72.2179 17.0335 72.4224 17.0335H74.084C74.4334 17.0335 74.7232 16.7821 74.7828 16.437L76.2698 7.00836C76.2996 6.80385 76.2442 6.59505 76.1079 6.44167C75.9757 6.28828 75.784 6.19452 75.5753 6.19452ZM70.7693 2.41113C70.9014 2.56878 70.9653 2.77332 70.9312 2.97784L69.2951 13.4164C69.278 13.5953 69.2738 13.7059 69.2738 13.7783C69.2738 14.1277 69.342 14.3706 69.474 14.4942C69.5976 14.6093 69.8703 14.6731 69.9172 14.6816C70.0663 14.703 70.2069 14.7797 70.3134 14.8905C70.454 15.0397 70.5265 15.244 70.5094 15.4485L70.4157 16.3858C70.3943 16.5862 70.3091 16.7522 70.1856 16.8417C70.0706 16.9184 69.9299 16.991 69.751 17.0591C69.5721 17.1273 69.0693 17.2721 68.7199 17.2721C67.838 17.2721 67.1563 17.0676 66.6919 16.6628C66.2317 16.2623 65.9974 15.6785 65.9974 14.9245C65.9974 14.7199 66.0187 14.4943 66.0613 14.2514C66.0741 14.1492 67.838 2.88836 67.8592 2.7648C67.9147 2.41969 68.2087 2.16815 68.5581 2.16815H70.2367C70.4413 2.16389 70.633 2.25349 70.7693 2.41113Z" fill="#2A55E5"/>
</g>
<defs>
<clipPath id="clip0_1_30">
<rect width="130" height="21.2579" fill="white" transform="translate(0 0.371071)"/>
</clipPath>
</defs>
</svg>
